<?xml version="1.0" encoding="UTF-8"?>
<svg id="Layer_2" data-name="Layer 2" xmlns="http://www.w3.org/2000/svg" xmlns:xlink="http://www.w3.org/1999/xlink" viewBox="0 0 775.58 285.64">
  <defs>
    <style>
      .cls-1 {
        fill: url(#linear-gradient-3);
      }

      .cls-2 {
        fill: url(#linear-gradient-2);
      }

      .cls-3 {
        fill: url(#linear-gradient);
      }

      .cls-4 {
        fill: #fff;
      }

      .cls-5 {
        fill: #bf9e4b;
      }
    </style>
    <linearGradient id="linear-gradient" x1="-12.38" y1="23.85" x2="116.66" y2="231.75" gradientUnits="userSpaceOnUse">
      <stop offset=".06" stop-color="#e8dea4"/>
      <stop offset=".44" stop-color="#bf9e4b"/>
      <stop offset="1" stop-color="#e8dea4"/>
    </linearGradient>
    <linearGradient id="linear-gradient-2" x1="-34.8" y1="37.77" x2="94.24" y2="245.67" xlink:href="#linear-gradient"/>
    <linearGradient id="linear-gradient-3" x1="21.99" y1="2.52" x2="151.03" y2="210.42" xlink:href="#linear-gradient"/>
  </defs>
  <g id="Layer_1-2" data-name="Layer 1">
    <g>
      <g>
        <path class="cls-4" d="M233.78,126.09c-5.48,0-9.07,2.19-9.07,5.84,0,11.08,23.98,5.29,23.92,20.75,0,7.06-6.27,11.62-15.4,11.62-6.21,0-12.29-2.68-16.31-6.51l2.19-4.2c3.96,3.77,9.37,5.96,14.18,5.96,6.15,0,9.98-2.5,9.98-6.63.06-11.38-23.92-5.35-23.92-20.63,0-6.69,5.9-10.95,14.73-10.95,4.93,0,9.98,1.58,13.51,3.96l-2.07,4.32c-3.83-2.5-8.34-3.53-11.74-3.53Z"/>
        <path class="cls-4" d="M309.85,121.52v4.5h-13.94v38.09h-4.87v-38.09h-13.87v-4.5h32.68Z"/>
        <path class="cls-4" d="M346.12,121.52v42.6h-4.87v-42.6h4.87Z"/>
        <path class="cls-4" d="M388.23,121.52v38.09h18.68v4.5h-23.55v-42.6h4.87Z"/>
        <path class="cls-4" d="M444.03,121.52v38.09h18.68v4.5h-23.55v-42.6h4.87Z"/>
        <path class="cls-4" d="M527.59,135.82c0,9.37-6.09,14.79-16.61,14.79h-11.14v13.51h-4.87v-42.6h16c10.53,0,16.61,5.23,16.61,14.3ZM522.9,135.95c0-6.51-4.44-9.92-12.11-9.92h-10.95v20.08h10.95c7.67,0,12.11-3.47,12.11-10.16Z"/>
        <path class="cls-4" d="M600.62,142.82c0,11.99-9.86,21.48-22.27,21.48s-22.33-9.49-22.33-21.48,9.86-21.42,22.33-21.42,22.27,9.43,22.27,21.42ZM560.94,142.82c0,9.43,7.91,17.04,17.4,17.04s17.28-7.61,17.28-17.04-7.79-16.92-17.28-16.92-17.4,7.48-17.4,16.92Z"/>
        <path class="cls-4" d="M638.71,121.52v42.6h-4.87v-42.6h4.87Z"/>
        <path class="cls-4" d="M681.01,121.52l25.56,34.63v-34.63h4.81v42.6h-4.99l-25.56-34.56v34.56h-4.87v-42.6h5.05Z"/>
        <path class="cls-4" d="M775.58,121.52v4.5h-13.94v38.09h-4.87v-38.09h-13.87v-4.5h32.68Z"/>
      </g>
      <g>
        <path class="cls-5" d="M220.26,187.6h4.15c3.34,0,5.28,1.36,6.3,2.49,1.36,1.5,2.04,3.51,2.04,5.86s-.68,4.39-2.04,5.86c-1.02,1.16-2.96,2.52-6.3,2.52h-3.54v8.55h-3.95v-25.26h3.34ZM229.21,195.94c0-.99-.2-2.42-1.12-3.44-.82-.88-2.04-1.36-3.68-1.36h-3.54v9.6h3.54c1.63,0,2.86-.44,3.68-1.33.92-1.02,1.12-2.45,1.12-3.47Z"/>
        <path class="cls-5" d="M274.12,212.86h-4.46l-6.37-8.55h-2.89v8.55h-3.95v-25.26h7.49c3.34,0,5.28,1.36,6.3,2.52,1.33,1.46,2.04,3.51,2.04,5.86s-.72,4.36-2.04,5.82c-.61.68-1.57,1.46-2.93,1.94l6.81,9.12ZM263.94,200.77c1.63,0,2.86-.48,3.64-1.36.95-1.02,1.12-2.45,1.12-3.44s-.17-2.45-1.12-3.47c-.78-.88-2.01-1.33-3.64-1.33h-3.54v9.6h3.54Z"/>
        <path class="cls-5" d="M304.01,211.87c-1.53-.65-2.86-1.57-4.02-2.72-1.16-1.16-2.08-2.49-2.72-4.02-.65-1.53-.99-3.2-.99-4.9s.34-3.37.99-4.94c.65-1.5,1.57-2.83,2.72-4.02,1.16-1.16,2.49-2.04,4.02-2.69,1.53-.65,3.2-.99,4.9-.99s3.37.34,4.94.99c1.5.65,2.83,1.53,4.02,2.69,1.16,1.19,2.04,2.52,2.69,4.02.65,1.57.99,3.23.99,4.94s-.34,3.37-.99,4.9c-.65,1.53-1.53,2.86-2.69,4.02-1.19,1.16-2.52,2.08-4.02,2.72-1.57.65-3.23.99-4.94.99s-3.37-.34-4.9-.99ZM302.79,194.1c-1.63,1.63-2.55,3.81-2.55,6.13s.92,4.49,2.55,6.13c1.63,1.63,3.81,2.55,6.13,2.55s4.49-.92,6.13-2.55c1.63-1.63,2.55-3.81,2.55-6.13s-.92-4.49-2.55-6.13c-1.63-1.63-3.81-2.55-6.13-2.55s-4.49.92-6.13,2.55Z"/>
        <path class="cls-5" d="M349.78,187.6h4.15c3.34,0,5.28,1.36,6.3,2.49,1.36,1.5,2.04,3.51,2.04,5.86s-.68,4.39-2.04,5.86c-1.02,1.16-2.96,2.52-6.3,2.52h-3.54v8.55h-3.95v-25.26h3.34ZM358.73,195.94c0-.99-.2-2.42-1.12-3.44-.82-.88-2.04-1.36-3.68-1.36h-3.54v9.6h3.54c1.63,0,2.86-.44,3.68-1.33.92-1.02,1.12-2.45,1.12-3.47Z"/>
        <path class="cls-5" d="M389.92,197.88h9.23v3.57h-9.23v7.83h11.2v3.57h-15.15v-25.26h15.15v3.54h-11.2v6.74Z"/>
        <path class="cls-5" d="M443.88,212.86h-4.46l-6.37-8.55h-2.89v8.55h-3.95v-25.26h7.49c3.34,0,5.28,1.36,6.3,2.52,1.33,1.46,2.04,3.51,2.04,5.86s-.72,4.36-2.04,5.82c-.61.68-1.57,1.46-2.93,1.94l6.81,9.12ZM433.7,200.77c1.63,0,2.86-.48,3.64-1.36.95-1.02,1.12-2.45,1.12-3.44s-.17-2.45-1.12-3.47c-.78-.88-2.01-1.33-3.64-1.33h-3.54v9.6h3.54Z"/>
        <path class="cls-5" d="M483.38,191.14h-6.94v21.72h-3.98v-21.72h-6.95v-3.54h17.87v3.54Z"/>
        <path class="cls-5" d="M518.52,199.65v13.21h-3.95v-13.21l-8.89-12.05h4.6l6.26,8.65,6.26-8.65h4.56l-8.85,12.05Z"/>
        <path class="cls-5" d="M601.46,203.33v6.84l-.89.61s-.03,0-.07.03c-.03.03-.1.07-.14.07-.03.03-.07.07-.1.07-.03.03-.07.07-.14.07-.03.03-.07.07-.14.1-.03.03-.07.03-.1.07-.03.03-.07.03-.1.07-.07.03-.1.03-.17.07-.03.03-.07.03-.1.07-.03.03-.1.07-.17.07t-.07.07h-.07s-.1.07-.17.1-.17.07-.24.1l-.03.03c-1.43.65-2.93.99-4.53,1.09h-.65c-1.36,0-2.72-.2-3.98-.65h-.03c-.14-.03-.24-.1-.37-.14-.17-.07-.34-.14-.51-.2-.44-.17-.85-.37-1.23-.61-1.02-.54-1.97-1.26-2.79-2.11-1.16-1.16-2.08-2.49-2.72-4.02-.48-1.16-.82-2.38-.92-3.64-.03-.41-.07-.85-.07-1.26v-.65c.1-1.46.41-2.93.99-4.29.65-1.5,1.57-2.86,2.72-4.02,1.16-1.16,2.49-2.08,4.02-2.69,1.53-.68,3.2-.99,4.9-.99h.65c.1,0,.2,0,.31.03,1.46.1,2.89.44,4.26,1.06,0,0,0,.03.03.03.07.03.14.07.2.1h.03v4.66c-.51-.44-1.09-.78-1.7-1.09-.51-.24-1.06-.44-1.57-.58-.03,0-.07,0-.1-.03h-.1s-.07-.03-.14-.03c0,0-.03,0-.07-.03-.14-.03-.31-.03-.44-.07h-.07s-.1-.03-.14-.03h-.07s-.1,0-.14-.03h-.31s-.07-.03-.1-.03h-.54c-1.6,0-3.13.41-4.46,1.23-.03.03-.1.07-.17.1-.54.34-1.06.75-1.5,1.23-.14.14-.31.27-.44.44,0,0,0,.03-.03.03-.17.2-.31.41-.44.61l-.07.07c-.07.1-.14.2-.21.31-.03.03-.07.1-.07.14-.51.82-.85,1.67-1.06,2.59t-.03.07c-.07.34-.14.68-.17,1.02v.37c-.03.17-.03.31-.03.48,0,.14,0,.27.03.44.03.65.14,1.29.31,1.91.41,1.43,1.16,2.72,2.21,3.78,1.63,1.63,3.81,2.55,6.13,2.55h.24s.07,0,.1-.03h.51s.03-.03.07-.03h.21c.24-.03.51-.1.75-.14t.07-.03s.1,0,.14-.03h.1s.07-.03.1-.03c.03-.03.1-.03.14-.03s.07-.03.07-.03c.48-.14.95-.31,1.4-.54h.03v-4.66h-4.77v-3.57h8.72v3.57Z"/>
        <path class="cls-5" d="M643.71,212.86h-4.46l-6.37-8.55h-2.89v8.55h-3.95v-25.26h7.49c3.34,0,5.28,1.36,6.3,2.52,1.33,1.46,2.04,3.51,2.04,5.86s-.72,4.36-2.04,5.82c-.61.68-1.57,1.46-2.93,1.94l6.81,9.12ZM633.53,200.77c1.63,0,2.86-.48,3.64-1.36.95-1.02,1.12-2.45,1.12-3.44s-.17-2.45-1.12-3.47c-.78-.88-2.01-1.33-3.64-1.33h-3.54v9.6h3.54Z"/>
        <path class="cls-5" d="M673.6,211.87c-1.53-.65-2.86-1.57-4.02-2.72-1.16-1.16-2.08-2.49-2.72-4.02-.65-1.53-.99-3.2-.99-4.9s.34-3.37.99-4.94c.65-1.5,1.57-2.83,2.72-4.02,1.16-1.16,2.49-2.04,4.02-2.69,1.53-.65,3.2-.99,4.9-.99s3.37.34,4.94.99c1.5.65,2.83,1.53,4.02,2.69,1.16,1.19,2.04,2.52,2.69,4.02.65,1.57.99,3.23.99,4.94s-.34,3.37-.99,4.9c-.65,1.53-1.53,2.86-2.69,4.02-1.19,1.16-2.52,2.08-4.02,2.72-1.57.65-3.24.99-4.94.99s-3.37-.34-4.9-.99ZM672.38,194.1c-1.63,1.63-2.55,3.81-2.55,6.13s.92,4.49,2.55,6.13c1.63,1.63,3.81,2.55,6.13,2.55s4.49-.92,6.13-2.55c1.63-1.63,2.55-3.81,2.55-6.13s-.92-4.49-2.55-6.13c-1.63-1.63-3.81-2.55-6.13-2.55s-4.49.92-6.13,2.55Z"/>
        <path class="cls-5" d="M718.65,210.85c-.99-.75-1.74-1.67-2.25-2.72-.58-1.16-.85-2.45-.85-3.85v-16.68h3.95v16.68c0,1.5.54,2.66,1.57,3.44.95.75,2.35,1.19,3.85,1.19s2.86-.44,3.85-1.19c1.02-.78,1.53-1.94,1.53-3.44v-16.68h3.98v16.68c0,1.4-.31,2.69-.85,3.85-.54,1.06-1.29,1.97-2.25,2.72-1.67,1.29-3.88,2.01-6.26,2.01s-4.6-.71-6.26-2.01Z"/>
        <path class="cls-5" d="M763.08,187.6h4.15c3.34,0,5.28,1.36,6.3,2.49,1.36,1.5,2.04,3.51,2.04,5.86s-.68,4.39-2.04,5.86c-1.02,1.16-2.96,2.52-6.3,2.52h-3.54v8.55h-3.95v-25.26h3.34ZM772.04,195.94c0-.99-.2-2.42-1.12-3.44-.82-.88-2.04-1.36-3.68-1.36h-3.54v9.6h3.54c1.63,0,2.86-.44,3.68-1.33.92-1.02,1.12-2.45,1.12-3.47Z"/>
      </g>
      <g>
        <polygon class="cls-3" points="126.12 131.88 126.12 55.19 31.07 0 31.07 285.64 35.58 285.64 35.58 7.84 121.61 57.79 121.61 131.88 126.12 131.88 126.12 131.88"/>
        <polygon class="cls-2" points="95.06 285.64 95.06 55.19 0 0 0 285.64 4.51 285.64 4.51 7.84 90.54 57.79 90.54 285.64 95.06 285.64 95.06 285.64"/>
        <polygon class="cls-1" points="95.06 285.64 95.06 151.22 181.08 101.27 181.08 285.64 185.6 285.64 185.6 93.43 90.54 148.62 90.54 285.64 95.06 285.64 95.06 285.64"/>
      </g>
    </g>
  </g>
</svg>