<?xml version="1.0" encoding="UTF-8"?>
<svg id="Layer_2" data-name="Layer 2" xmlns="http://www.w3.org/2000/svg" xmlns:xlink="http://www.w3.org/1999/xlink" viewBox="0 0 845.71 816.25">
  <defs>
    <style>
      .cls-1 {
        fill: url(#linear-gradient-3);
      }

      .cls-2 {
        fill: url(#linear-gradient-2);
      }

      .cls-3 {
        fill: url(#linear-gradient);
      }

      .cls-4 {
        fill: #0d3b66;
      }
    </style>
    <linearGradient id="linear-gradient" x1="250.8" y1="213.52" x2="461.89" y2="553.6" gradientUnits="userSpaceOnUse">
      <stop offset=".06" stop-color="#e8dea4"/>
      <stop offset=".44" stop-color="#bf9e4b"/>
      <stop offset="1" stop-color="#e8dea4"/>
    </linearGradient>
    <linearGradient id="linear-gradient-2" x1="214.12" y1="236.29" x2="425.21" y2="576.37" xlink:href="#linear-gradient"/>
    <linearGradient id="linear-gradient-3" x1="307.03" y1="178.62" x2="518.11" y2="518.71" xlink:href="#linear-gradient"/>
  </defs>
  <g id="Layer_1-2" data-name="Layer 1">
    <rect class="cls-4" width="845.71" height="816.25"/>
    <g>
      <polygon class="cls-3" points="477.36 390.24 477.36 264.78 321.87 174.5 321.87 641.75 329.25 641.75 329.25 187.33 469.98 269.04 469.98 390.24 477.36 390.24 477.36 390.24"/>
      <polygon class="cls-2" points="426.54 641.75 426.54 264.78 271.05 174.5 271.05 641.75 278.44 641.75 278.44 187.33 419.16 269.04 419.16 641.75 426.54 641.75 426.54 641.75"/>
      <polygon class="cls-1" points="426.54 641.75 426.54 421.87 567.27 340.16 567.27 641.75 574.65 641.75 574.65 327.33 419.16 417.62 419.16 641.75 426.54 641.75 426.54 641.75"/>
    </g>
  </g>
</svg>